solid wedge
  facet normal 0.000000 -1.000000 0.000000
    outer loop
      vertex 0.000000 0.000000 0.000000
      vertex 120.000000 0.000000 0.000000
      vertex 0.000000 0.000000 120.000000
    endloop
  endfacet
  facet normal 0.000000 1.000000 0.000000
    outer loop
      vertex 0.000000 120.000000 0.000000
      vertex 0.000000 120.000000 120.000000
      vertex 120.000000 120.000000 0.000000
    endloop
  endfacet
  facet normal 0.000000 0.000000 -1.000000
    outer loop
      vertex 0.000000 0.000000 0.000000
      vertex 0.000000 120.000000 0.000000
      vertex 120.000000 120.000000 0.000000
    endloop
  endfacet
  facet normal 0.000000 0.000000 -1.000000
    outer loop
      vertex 0.000000 0.000000 0.000000
      vertex 120.000000 120.000000 0.000000
      vertex 120.000000 0.000000 0.000000
    endloop
  endfacet
  facet normal -1.000000 0.000000 0.000000
    outer loop
      vertex 0.000000 0.000000 0.000000
      vertex 0.000000 0.000000 120.000000
      vertex 0.000000 120.000000 120.000000
    endloop
  endfacet
  facet normal -1.000000 0.000000 0.000000
    outer loop
      vertex 0.000000 0.000000 0.000000
      vertex 0.000000 120.000000 120.000000
      vertex 0.000000 120.000000 0.000000
    endloop
  endfacet
  facet normal 0.707107 -0.000000 0.707107
    outer loop
      vertex 120.000000 0.000000 0.000000
      vertex 120.000000 120.000000 0.000000
      vertex 0.000000 120.000000 120.000000
    endloop
  endfacet
  facet normal 0.707107 0.000000 0.707107
    outer loop
      vertex 120.000000 0.000000 0.000000
      vertex 0.000000 120.000000 120.000000
      vertex 0.000000 0.000000 120.000000
    endloop
  endfacet
endsolid wedge
